<?xml version="1.0" encoding="utf-8"?>
<!-- Generator: Adobe Illustrator 16.0.0, SVG Export Plug-In . SVG Version: 6.00 Build 0)  -->
<!DOCTYPE svg PUBLIC "-//W3C//DTD SVG 1.1//EN" "http://www.w3.org/Graphics/SVG/1.1/DTD/svg11.dtd" [
	<!ENTITY ns_flows "http://ns.adobe.com/Flows/1.0/">
	<!ENTITY ns_extend "http://ns.adobe.com/Extensibility/1.0/">
	<!ENTITY ns_ai "http://ns.adobe.com/AdobeIllustrator/10.0/">
	<!ENTITY ns_graphs "http://ns.adobe.com/Graphs/1.0/">
]>
<svg version="1.1" id="Layer_1" xmlns:x="&ns_extend;" xmlns:i="&ns_ai;" xmlns:graph="&ns_graphs;"
	 xmlns="http://www.w3.org/2000/svg" xmlns:xlink="http://www.w3.org/1999/xlink" xmlns:a="http://ns.adobe.com/AdobeSVGViewerExtensions/3.0/"
	 x="0px" y="0px" width="495.819px" height="621.778px" viewBox="0 0 495.819 621.778" enable-background="new 0 0 495.819 621.778"
	 xml:space="preserve">
<g>
	<path fill-rule="evenodd" clip-rule="evenodd" fill="#FFFFFF" d="M-25.037-31.069c181.92,0,363.84,0,545.761,0c0,228,0,456,0,684
		c-181.921,0-363.841,0-545.761,0C-25.037,424.931-25.037,196.931-25.037-31.069z M162.035,251.02c0,0.932,0.008,1.402-0.001,1.872
		c-0.088,4.637-0.237,9.274-0.259,13.912c-0.109,23.129-1.175,46.21-3.565,69.218c-1.645,15.827-3.952,31.563-7.082,47.171
		c-4.472,22.302-10.587,44.122-18.933,65.304c-10.356,26.283-24.4,50.483-41.124,73.189c-5.881,7.984-11.743,15.988-17.369,24.151
		c-2.574,3.734-4.703,7.803-6.768,11.854c-2.044,4.011-3.382,8.332-3.601,12.852c-0.503,10.413,1.811,20.17,7.364,29.063
		c11,17.616,31.775,23.804,45.356,21.816c10.735-1.57,20.423-5.098,28.587-12.377c6.18-5.511,10.759-12.22,14.521-19.526
		c4.707-9.141,8.009-18.813,10.683-28.709c6.253-23.139,9.583-46.801,12.454-70.535c1.296-10.714,2.413-21.451,3.493-32.189
		c1.289-12.808,2.501-25.624,3.653-38.444c1.088-12.105,2.046-24.222,3.079-36.332c1.366-16.014,2.754-32.025,4.124-48.039
		c1.03-12.03,2.015-24.064,3.077-36.092c1.224-13.858,2.508-27.711,3.778-41.566c0.062-0.677,0.236-1.344,0.376-2.117
		c1.008,0.291,1.772,0.494,2.527,0.732c8.578,2.702,16.666,6.486,24.477,10.925c18.438,10.479,38.086,17.686,58.945,21.567
		c1.546,0.287,3.081,0.629,4.649,0.951c0,0.683,0.031,1.156-0.005,1.623c-0.754,9.807-1.481,19.616-2.285,29.418
		c-0.62,7.57-1.312,15.136-2.02,22.699c-0.894,9.553-1.83,19.102-2.76,28.65c-0.837,8.595-1.694,17.187-2.532,25.781
		c-1.055,10.822-2.15,21.642-3.13,32.471c-0.936,10.353-1.813,20.712-2.591,31.077c-0.838,11.163-1.615,22.333-2.262,33.51
		c-0.525,9.101-0.843,18.214-1.206,27.324c-0.271,6.792-0.443,13.58,0.156,20.377c0.875,9.931,2.762,19.63,6.354,28.942
		c8.144,21.113,22.415,36.263,43.758,44.317c13.493,5.093,27.526,6.247,41.798,5.009c16.456-1.429,30.897-7.704,43.463-18.363
		c9.32-7.907,16.661-17.434,22.71-27.996c8.582-14.985,14.198-31.072,17.664-47.941c1.644-7.999,2.791-16.067,2.96-24.249
		c0.02-0.922-0.067-1.845-0.104-2.742c-5.442,0-10.596,0-15.878,0c-0.136,1.415-0.264,2.68-0.376,3.946
		c-0.642,7.288-2.105,14.394-4.888,21.181c-5.337,13.02-14.408,22.127-28.017,26.326c-7.27,2.244-14.716,2.895-22.293,2.04
		c-13.65-1.539-24.391-7.771-31.498-19.694c-1.751-2.938-3.249-6.07-4.509-9.253c-4.221-10.667-5.994-21.883-6.681-33.247
		c-0.512-8.452-0.636-16.938-0.651-25.409c-0.024-14.086,1.068-28.127,2.212-42.157c0.779-9.562,1.746-19.109,2.655-28.66
		c1.007-10.586,2.066-21.168,3.063-31.755c0.922-9.791,1.926-19.578,2.648-29.385c0.858-11.643,1.459-23.305,2.159-34.959
		c0.167-2.787,0.284-5.577,0.43-8.458c0.765-0.167,1.454-0.358,2.155-0.467c10.212-1.577,20.24-3.941,30.028-7.243
		c45.741-15.432,81.013-43.841,105.628-85.407c4.486-7.575,6.069-15.731,4.727-24.448c-4.185-27.144-36.225-40.053-58.103-23.407
		c-4.136,3.146-7.333,7.077-9.976,11.537c-13.544,22.858-32.592,39.45-57.171,49.512c-21.158,8.662-43.075,11.005-65.636,7.042
		c-14.095-2.476-27.182-7.579-39.592-14.654c-24.404-13.912-50.675-21.91-78.654-24.243c-14.483-1.208-28.936-0.705-43.31,1.435
		c-23.406,3.484-45.497,10.912-66.13,22.528c-30.321,17.069-54.216,40.687-71.725,70.753c-4.112,7.061-5.745,14.659-4.768,22.818
		c2.679,22.379,24.757,37.032,46.398,30.717c9.418-2.749,16.57-8.453,21.509-16.919c7.459-12.784,16.896-23.868,28.491-33.079
		c17.118-13.598,36.57-21.762,58.187-24.821C157.159,251.423,159.461,251.276,162.035,251.02z M324.236,150.305
		c18.982-0.099,36.856-2.445,54.276-7.66c48.569-14.541,85.951-43.532,111.959-87.105c4.6-7.707,6.263-15.99,4.87-24.882
		c-3.126-19.961-22.593-34.453-43.942-29.775c-10.471,2.294-18.388,8.287-23.797,17.545c-9.191,15.73-21.221,28.84-36.46,38.836
		c-26.745,17.544-55.975,23.581-87.488,18.078C289.902,72.941,277.123,67.816,265,60.89c-23.95-13.686-49.732-21.699-77.194-24.157
		c-14.783-1.323-29.547-0.911-44.264,1.219c-23.026,3.332-44.768,10.506-65.146,21.709c-30.938,17.009-55.28,40.83-73.139,71.277
		c-4.903,8.36-6.42,17.292-4.368,26.792C5.052,177,24.453,189.608,43.726,185.558c10.688-2.246,18.84-8.092,24.375-17.489
		c5.429-9.218,11.713-17.789,19.497-25.133c29.996-28.303,65.416-38.824,105.984-31.708c13.101,2.298,25.269,7.333,36.829,13.92
		C259.728,141.855,291.321,150.11,324.236,150.305z"/>
	<path fill-rule="evenodd" clip-rule="evenodd" d="M162.035,251.02c-2.574,0.256-4.876,0.403-7.153,0.726
		c-21.616,3.06-41.069,11.224-58.187,24.821c-11.596,9.211-21.032,20.295-28.491,33.079c-4.939,8.466-12.091,14.17-21.509,16.919
		c-21.641,6.315-43.719-8.338-46.398-30.717c-0.977-8.16,0.656-15.757,4.768-22.818c17.509-30.066,41.404-53.684,71.725-70.753
		c20.633-11.616,42.724-19.043,66.13-22.528c14.374-2.14,28.826-2.643,43.31-1.435c27.979,2.333,54.25,10.331,78.654,24.243
		c12.41,7.075,25.497,12.178,39.592,14.654c22.561,3.963,44.478,1.62,65.636-7.042c24.579-10.063,43.627-26.654,57.171-49.512
		c2.643-4.46,5.84-8.39,9.976-11.537c21.878-16.646,53.918-3.737,58.103,23.407c1.343,8.717-0.24,16.874-4.727,24.448
		c-24.615,41.566-59.887,69.975-105.628,85.407c-9.788,3.302-19.816,5.667-30.028,7.243c-0.701,0.108-1.391,0.299-2.155,0.467
		c-0.146,2.881-0.263,5.671-0.43,8.458c-0.7,11.654-1.301,23.316-2.159,34.959c-0.723,9.807-1.727,19.594-2.648,29.385
		c-0.996,10.587-2.056,21.169-3.063,31.755c-0.909,9.551-1.876,19.099-2.655,28.66c-1.144,14.03-2.236,28.071-2.212,42.157
		c0.016,8.472,0.14,16.957,0.651,25.409c0.687,11.364,2.46,22.58,6.681,33.247c1.26,3.183,2.758,6.314,4.509,9.253
		c7.107,11.924,17.848,18.155,31.498,19.694c7.577,0.854,15.023,0.204,22.293-2.04c13.608-4.199,22.68-13.307,28.017-26.326
		c2.782-6.787,4.246-13.893,4.888-21.181c0.112-1.267,0.24-2.531,0.376-3.946c5.282,0,10.436,0,15.878,0
		c0.036,0.897,0.123,1.82,0.104,2.742c-0.169,8.182-1.316,16.25-2.96,24.249c-3.466,16.869-9.082,32.956-17.664,47.941
		c-6.049,10.563-13.39,20.089-22.71,27.996c-12.565,10.659-27.007,16.935-43.463,18.363c-14.271,1.238-28.305,0.084-41.798-5.009
		c-21.343-8.055-35.614-23.204-43.758-44.317c-3.592-9.313-5.479-19.012-6.354-28.942c-0.6-6.797-0.428-13.585-0.156-20.377
		c0.363-9.11,0.681-18.224,1.206-27.324c0.646-11.177,1.424-22.347,2.262-33.51c0.778-10.365,1.655-20.725,2.591-31.077
		c0.979-10.829,2.075-21.648,3.13-32.471c0.838-8.595,1.695-17.187,2.532-25.781c0.93-9.549,1.866-19.098,2.76-28.65
		c0.708-7.563,1.399-15.129,2.02-22.699c0.804-9.803,1.531-19.611,2.285-29.418c0.036-0.467,0.005-0.94,0.005-1.623
		c-1.568-0.322-3.104-0.664-4.649-0.951c-20.859-3.881-40.507-11.088-58.945-21.567c-7.811-4.439-15.898-8.223-24.477-10.925
		c-0.754-0.238-1.519-0.441-2.527-0.732c-0.14,0.773-0.314,1.44-0.376,2.117c-1.27,13.855-2.554,27.708-3.778,41.566
		c-1.062,12.027-2.047,24.062-3.077,36.092c-1.37,16.014-2.758,32.025-4.124,48.039c-1.033,12.11-1.991,24.227-3.079,36.332
		c-1.152,12.82-2.365,25.637-3.653,38.444c-1.08,10.738-2.197,21.476-3.493,32.189c-2.87,23.734-6.201,47.396-12.454,70.535
		c-2.674,9.896-5.976,19.568-10.683,28.709c-3.762,7.307-8.341,14.016-14.521,19.526c-8.164,7.279-17.852,10.807-28.587,12.377
		c-13.582,1.987-34.356-4.2-45.356-21.816c-5.553-8.893-7.867-18.649-7.364-29.063c0.218-4.52,1.556-8.841,3.601-12.852
		c2.065-4.052,4.194-8.12,6.768-11.854c5.626-8.163,11.488-16.167,17.369-24.151c16.724-22.706,30.768-46.906,41.124-73.189
		c8.346-21.182,14.461-43.002,18.933-65.304c3.129-15.608,5.437-31.344,7.082-47.171c2.391-23.008,3.456-46.089,3.565-69.218
		c0.022-4.637,0.171-9.274,0.259-13.912C162.042,252.421,162.035,251.951,162.035,251.02z"/>
	<path fill-rule="evenodd" clip-rule="evenodd" d="M324.236,150.305c-32.915-0.195-64.508-8.45-93.826-25.156
		c-11.561-6.587-23.728-11.622-36.829-13.92c-40.568-7.117-75.988,3.405-105.984,31.708c-7.783,7.344-14.067,15.915-19.497,25.133
		c-5.535,9.397-13.686,15.243-24.375,17.489C24.453,189.608,5.052,177,0.89,157.73c-2.053-9.501-0.536-18.432,4.368-26.792
		c17.859-30.447,42.201-54.268,73.139-71.277c20.379-11.204,42.12-18.378,65.146-21.709c14.716-2.129,29.48-2.542,44.264-1.219
		C215.269,39.19,241.05,47.204,265,60.89c12.122,6.926,24.901,12.051,38.653,14.453c31.514,5.503,60.743-0.534,87.488-18.078
		c15.239-9.996,27.269-23.106,36.46-38.836c5.409-9.259,13.326-15.251,23.797-17.545c21.35-4.678,40.816,9.814,43.942,29.775
		c1.393,8.892-0.271,17.175-4.87,24.882c-26.008,43.573-63.39,72.565-111.959,87.105
		C361.092,147.86,343.218,150.206,324.236,150.305z"/>
</g>
</svg>
